<svg width="20" height="20" viewBox="0 0 20 20" fill="none" xmlns="http://www.w3.org/2000/svg">
<path d="M7.77778 19.5122C5.53704 19.2478 3.68056 18.318 2.20833 16.7229C0.736111 15.1277 0 13.2549 0 11.1045C0 9.94117 0.240741 8.82632 0.722222 7.75993C1.2037 6.69355 1.88889 5.76376 2.77778 4.97059L4.36111 6.47763C3.65741 7.07692 3.125 7.77315 2.76389 8.56633C2.40278 9.35951 2.22222 10.2056 2.22222 11.1045C2.22222 12.6556 2.74074 14.026 3.77778 15.2158C4.81482 16.4056 6.14815 17.1327 7.77778 17.3971V19.5122ZM10 19.5122V17.3971C11.6111 17.115 12.9398 16.3835 13.9861 15.2026C15.0324 14.0216 15.5556 12.6556 15.5556 11.1045C15.5556 9.34188 14.9074 7.84366 13.6111 6.60982C12.3148 5.37599 10.7407 4.75907 8.88889 4.75907H8.80556L10.0278 5.9224L8.47222 7.403L4.58333 3.7015L8.47222 0L10.0278 1.4806L8.80556 2.64393H8.88889C11.3704 2.64393 13.4722 3.46355 15.1944 5.10278C16.9167 6.74202 17.7778 8.74259 17.7778 11.1045C17.7778 13.2373 17.0417 15.1012 15.5694 16.6964C14.0972 18.2916 12.2407 19.2302 10 19.5122Z" fill="#0062CC"/>
</svg>
