<svg width="32" height="32" viewBox="0 0 32 32" fill="none" xmlns="http://www.w3.org/2000/svg">
<path d="M26.2333 27.1667L27.1667 26.2333L24.6667 23.7333V20H23.3333V24.2667L26.2333 27.1667ZM6.66667 28C5.93333 28 5.30556 27.7389 4.78333 27.2167C4.26111 26.6944 4 26.0667 4 25.3333V6.66667C4 5.93333 4.26111 5.30556 4.78333 4.78333C5.30556 4.26111 5.93333 4 6.66667 4H25.3333C26.0667 4 26.6944 4.26111 27.2167 4.78333C27.7389 5.30556 28 5.93333 28 6.66667V15.6C27.5778 15.4 27.1444 15.2278 26.7 15.0833C26.2556 14.9389 25.8 14.8333 25.3333 14.7667V6.66667H6.66667V25.3333H14.7333C14.8 25.8222 14.9056 26.2889 15.05 26.7333C15.1944 27.1778 15.3667 27.6 15.5667 28H6.66667ZM6.66667 24V25.3333V6.66667V14.7667V14.6667V24ZM9.33333 22.6667H14.7667C14.8333 22.2 14.9389 21.7444 15.0833 21.3C15.2278 20.8556 15.3889 20.4222 15.5667 20H9.33333V22.6667ZM9.33333 17.3333H17.4667C18.1778 16.6667 18.9722 16.1111 19.85 15.6667C20.7278 15.2222 21.6667 14.9222 22.6667 14.7667V14.6667H9.33333V17.3333ZM9.33333 12H22.6667V9.33333H9.33333V12ZM24 30.6667C22.1556 30.6667 20.5833 30.0167 19.2833 28.7167C17.9833 27.4167 17.3333 25.8444 17.3333 24C17.3333 22.1556 17.9833 20.5833 19.2833 19.2833C20.5833 17.9833 22.1556 17.3333 24 17.3333C25.8444 17.3333 27.4167 17.9833 28.7167 19.2833C30.0167 20.5833 30.6667 22.1556 30.6667 24C30.6667 25.8444 30.0167 27.4167 28.7167 28.7167C27.4167 30.0167 25.8444 30.6667 24 30.6667Z" fill="#001833"/>
</svg>
