<svg width="32" height="32" viewBox="0 0 32 32" fill="none" xmlns="http://www.w3.org/2000/svg">
<path d="M12.3333 29.3333L11.8 25.0667C11.5111 24.9556 11.2389 24.8222 10.9833 24.6667C10.7278 24.5111 10.4778 24.3444 10.2333 24.1667L6.26664 25.8333L2.59998 19.5L6.03331 16.9C6.01109 16.7444 5.99998 16.5944 5.99998 16.45V15.55C5.99998 15.4056 6.01109 15.2556 6.03331 15.1L2.59998 12.5L6.26664 6.16666L10.2333 7.83333C10.4778 7.65555 10.7333 7.48889 11 7.33333C11.2666 7.17777 11.5333 7.04444 11.8 6.93333L12.3333 2.66666H19.6666L20.2 6.93333C20.4889 7.04444 20.7611 7.17777 21.0166 7.33333C21.2722 7.48889 21.5222 7.65555 21.7666 7.83333L25.7333 6.16666L29.4 12.5L25.9666 15.1C25.9889 15.2556 26 15.4056 26 15.55V16.45C26 16.5944 25.9778 16.7444 25.9333 16.9L29.3666 19.5L25.7 25.8333L21.7666 24.1667C21.5222 24.3444 21.2666 24.5111 21 24.6667C20.7333 24.8222 20.4666 24.9556 20.2 25.0667L19.6666 29.3333H12.3333ZM14.6666 26.6667H17.3L17.7666 23.1333C18.4555 22.9556 19.0944 22.6944 19.6833 22.35C20.2722 22.0056 20.8111 21.5889 21.3 21.1L24.6 22.4667L25.9 20.2L23.0333 18.0333C23.1444 17.7222 23.2222 17.3944 23.2666 17.05C23.3111 16.7056 23.3333 16.3556 23.3333 16C23.3333 15.6444 23.3111 15.2944 23.2666 14.95C23.2222 14.6056 23.1444 14.2778 23.0333 13.9667L25.9 11.8L24.6 9.53333L21.3 10.9333C20.8111 10.4222 20.2722 9.99444 19.6833 9.65C19.0944 9.30555 18.4555 9.04444 17.7666 8.86666L17.3333 5.33333H14.7L14.2333 8.86666C13.5444 9.04444 12.9055 9.30555 12.3166 9.65C11.7278 9.99444 11.1889 10.4111 10.7 10.9L7.39998 9.53333L6.09998 11.8L8.96664 13.9333C8.85553 14.2667 8.77775 14.6 8.73331 14.9333C8.68886 15.2667 8.66664 15.6222 8.66664 16C8.66664 16.3556 8.68886 16.7 8.73331 17.0333C8.77775 17.3667 8.85553 17.7 8.96664 18.0333L6.09998 20.2L7.39998 22.4667L10.7 21.0667C11.1889 21.5778 11.7278 22.0056 12.3166 22.35C12.9055 22.6944 13.5444 22.9556 14.2333 23.1333L14.6666 26.6667ZM16.0666 20.6667C17.3555 20.6667 18.4555 20.2111 19.3666 19.3C20.2778 18.3889 20.7333 17.2889 20.7333 16C20.7333 14.7111 20.2778 13.6111 19.3666 12.7C18.4555 11.7889 17.3555 11.3333 16.0666 11.3333C14.7555 11.3333 13.65 11.7889 12.75 12.7C11.85 13.6111 11.4 14.7111 11.4 16C11.4 17.2889 11.85 18.3889 12.75 19.3C13.65 20.2111 14.7555 20.6667 16.0666 20.6667Z" fill="#001833"/>
</svg>
